<svg xmlns="http://www.w3.org/2000/svg" viewBox="0 0 435.6 73.5"><path d="M199.4 19H177c-7.7 0-16.5 2.7-16.5 15.8v9.5c0 13.1 8.8 15.8 16.5 15.8h22.4c7.7 0 16.5-2.7 16.5-15.8v-9.5c0-13.1-8.9-15.8-16.5-15.8m1.4 23.4c0 5.3-1.9 6.6-11.6 6.6h-3.6c-6.9 0-10.2-1.7-10.2-7.4v-3.8c0-5.7 3.4-7.4 10.2-7.4h3.6c9.7 0 11.6 1.2 11.6 6.6v5.4zm71-6.4c0-10.2-2.3-17-21.3-17H246c-6.2 0-12.5 1.7-13.5 8h-.2V2.9h-15v56.6h14.1v-7.3h.2c1.6 4.9 5.4 8 14.5 8h4.4c19 0 21.3-6.8 21.3-17V36zm-14.6 6c0 4.4-.7 7-7.9 7h-8.8c-5.9 0-9.1-1.3-9.1-7.3v-3.9c0-6 3.1-7.3 9.1-7.3h8.8c7.2 0 7.9 2.5 7.9 7V42z"/><path d="M273 59.3c0 2.6-1.1 3.9-4 3.9-.4 0-.9-.1-1.6-.2v10.1c1.6.1 3.8.4 5.9.4 8.8 0 14.6-2.7 14.6-11.3V19.7h-15v39.6zM422.3 42v2.7c0 3.7-1.3 4.8-6.2 4.8-3.6 0-5.8-.6-5.8-3.6V30.5h12.1V19.7h-12.1v-9.4h-15v9.4h-7.5v2.5c-3.1-2.1-7.5-3.1-13-3.1h-16.9c-9 0-15.6 2.2-17.7 11.4-1.8-9-8.6-11.4-22-11.4h-10.5c-11 0-18.5 3.3-18.5 18.4v3.8c0 17 10.5 18.9 20.4 18.9h11.3c10.2 0 18.7-1.9 19.7-10.5 3 9.3 11.3 10.5 19.3 10.5h15.3c8.6 0 17.5-3.1 17.5-13.8v-3.5h-14.6v.9c0 3.7-3.8 4.6-8.1 4.6h-7.7c-4.7 0-8-1.6-8-6.7v-5.3c0-4.4 3-6.1 9.2-6.1h5.8c6.6 0 8.7 1.5 8.7 5.6h14.6v-3.6c0-.6 0-1.2-.1-1.8h2.7v15.8c0 11 8 13.9 17.2 13.9h5.9c12 0 17-5.8 17-13.4V42h-13zM315.2 28.4c8.8 0 11 .9 11 5.6h-21.9c0-4.7 1.1-5.6 10.9-5.6zm11.4 17.9c0 2.3-.4 4.5-8.5 4.5h-4.6c-6.3 0-9.2-1.2-9.2-5.4V43h35.3c0 1.2.2 2.3.3 3.3h-13.3z"/><path d="M33.1 19.1h-4.5c-6.2 0-12.5 1.7-13.5 8H15V12.5H0v47.1h14.1v-7.3h.2c1.6 4.9 5.4 8 14.5 8h4.4c19 0 21.3-6.8 21.3-17V36c-.1-10.1-2.4-16.9-21.4-16.9M39.9 42c0 4.5-.7 7-7.9 7h-8.8c-5.9 0-9.1-1.3-9.1-7.3v-3.9c0-6 3.1-7.3 9.1-7.3H32c7.2 0 7.9 2.5 7.9 7V42zm16.9-22.3h15v39.9h-15zm84.8-.6H137c-8.5 0-11.7 2.1-14.2 9.3-2.8-6.3-7.7-9.3-14.8-9.3h-5.7c-7.4 0-12.5 2.7-13.3 8.4h-.2v-7.8H74.5v39.9h15v-21c0-6.2 3.1-7.7 9.5-7.7 9.1 0 10.9 1.2 10.9 6.2v22.6h15v-22c0-5.2 3-6.8 10.2-6.8 8.8 0 10.2 1.9 10.2 7.4v21.4h15V37.1c-.1-11.4-5.1-18-18.7-18M71.8 7c-.1-1.5-.7-2.9-1.6-4.1-1.4-1.8-3.5-3-6-3-2.4 0-4.6 1.2-6 3-.8 1-1.3 2.3-1.5 3.7 0 .3-.1.6-.1.9 0 .3.1.6.1.9.2 1.5.8 2.9 1.8 4 .8 1 1.9 1.7 3.2 2.2.8.3 1.6.5 2.5.5.9 0 1.7-.2 2.5-.5 1.2-.4 2.3-1.2 3.2-2.2 1-1.2 1.7-2.7 1.8-4.4 0-.2.1-.4.1-.6.1 0 0-.2 0-.4" fill="#00AEEF"/><path d="M435.6 7.5c0 3.7-2.9 6.6-6.6 6.6-3.7 0-6.6-2.9-6.6-6.6 0-3.7 2.9-6.6 6.6-6.6 3.7 0 6.6 2.9 6.6 6.6zm-12.2 0c0 3.2 2.4 5.7 5.6 5.7s5.6-2.5 5.6-5.7-2.4-5.7-5.6-5.7-5.6 2.5-5.6 5.7zm4.1 3.8h-.9V3.7h2.9c1.7 0 2.5.7 2.5 2.1 0 1.4-.9 2-1.9 2.1l2.3 3.4h-1.1l-2.2-3.4h-1.6v3.4zm1.3-4.2c1.2 0 2.3 0 2.3-1.3 0-1.1-.9-1.3-1.8-1.3h-1.7v2.7h1.2z"/></svg>